<?xml version="1.0" encoding="utf-8"?>
<svg version="1.1" xmlns:xlink="http://www.w3.org/1999/xlink" width="22px" height="18px" xmlns="http://www.w3.org/2000/svg">
  <g transform="matrix(1 0 0 1 -15 -512 )">
    <path d="M 8.9515306122449 16.46015625  C 8.9421768707483 16.51171875  8.9515306122449 16.575  8.9795918367347 16.65  C 8.9795918367347 16.6875  8.98426870748299 16.78125  8.99362244897959 16.93125  C 9.00297619047619 17.08125  9.00531462585034 17.20546875  9.00063775510204 17.30390625  C 8.99596088435374 17.40234375  8.98193027210884 17.5125  8.95854591836735 17.634375  C 8.93516156462585 17.75625  8.88839285714286 17.84765625  8.81823979591837 17.90859375  C 8.74808673469388 17.96953125  8.65221088435374 18  8.53061224489796 18  L 4.04081632653061 18  C 2.92772108843537 18  1.97597789115646 17.60390625  1.18558673469388 16.81171875  C 0.395195578231292 16.01953125  0 15.065625  0 13.95  L 0 4.05  C 0 2.934375  0.395195578231292 1.98046875  1.18558673469388 1.18828125  C 1.97597789115646 0.396093749999997  2.92772108843537 0  4.04081632653061 0  L 8.53061224489796 0  C 8.65221088435374 0  8.75744047619048 0.0445312499999975  8.84630102040816 0.13359375  C 8.93516156462585 0.222656249999999  8.9795918367347 0.328124999999999  8.9795918367347 0.45  C 8.9795918367347 0.487499999999998  8.98426870748299 0.581249999999999  8.99362244897959 0.73125  C 9.00297619047619 0.881249999999998  9.00531462585034 1.00546875  9.00063775510204 1.10390625  C 8.99596088435374 1.20234375  8.98193027210884 1.3125  8.95854591836735 1.434375  C 8.93516156462585 1.55625  8.88839285714286 1.64765625  8.81823979591837 1.70859375  C 8.74808673469388 1.76953125  8.65221088435374 1.8  8.53061224489796 1.8  L 4.04081632653061 1.8  C 3.4234693877551 1.8  2.89498299319728 2.0203125  2.45535714285714 2.4609375  C 2.01573129251701 2.9015625  1.79591836734694 3.43125  1.79591836734694 4.05  L 1.79591836734694 13.95  C 1.79591836734694 14.56875  2.01573129251701 15.0984375  2.45535714285714 15.5390625  C 2.89498299319728 15.9796875  3.4234693877551 16.2  4.04081632653061 16.2  L 8.08163265306123 16.2  L 8.2359693877551 16.2  L 8.41836734693877 16.2  C 8.41836734693877 16.2  8.47215136054422 16.2046875  8.5797193877551 16.2140625  C 8.68728741496599 16.2234375  8.74107142857143 16.2375  8.74107142857143 16.25625  C 8.74107142857143 16.275  8.77848639455782 16.30078125  8.85331632653061 16.33359375  C 8.9281462585034 16.36640625  8.9608843537415 16.40859375  8.9515306122449 16.46015625  Z M 21.7334183673469 8.3671875  C 21.9111394557823 8.5453125  22 8.75625  22 9  C 22 9.24375  21.9111394557823 9.4546875  21.7334183673469 9.6328125  L 14.1007653061224 17.2828125  C 13.9230442176871 17.4609375  13.7125850340136 17.55  13.469387755102 17.55  C 13.2261904761905 17.55  13.015731292517 17.4609375  12.8380102040816 17.2828125  C 12.6602891156463 17.1046875  12.5714285714286 16.89375  12.5714285714286 16.65  L 12.5714285714286 12.6  L 6.28571428571429 12.6  C 6.04251700680272 12.6  5.83205782312925 12.5109375  5.65433673469388 12.3328125  C 5.4766156462585 12.1546875  5.38775510204082 11.94375  5.38775510204082 11.7  L 5.38775510204082 6.3  C 5.38775510204082 6.05625  5.4766156462585 5.8453125  5.65433673469388 5.6671875  C 5.83205782312925 5.4890625  6.04251700680272 5.4  6.28571428571429 5.4  L 12.5714285714286 5.4  L 12.5714285714286 1.35  C 12.5714285714286 1.10625  12.6602891156463 0.895312499999997  12.8380102040816 0.717187499999999  C 13.015731292517 0.539062499999999  13.2261904761905 0.45  13.469387755102 0.45  C 13.7125850340136 0.45  13.9230442176871 0.539062499999999  14.1007653061224 0.717187499999999  L 21.7334183673469 8.3671875  Z " fill-rule="nonzero" fill="#5b63a8" stroke="none" transform="matrix(1 0 0 1 15 512 )" />
  </g>
</svg>