<?xml version="1.0" encoding="utf-8"?>
<svg version="1.1" xmlns:xlink="http://www.w3.org/1999/xlink" width="16px" height="16px" xmlns="http://www.w3.org/2000/svg">
  <g transform="matrix(1 0 0 1 -267 -504 )">
    <path d="M 15.6818181818182 6.13636363636364  C 15.8939393939394 6.34848484848485  16 6.60606060606061  16 6.90909090909091  L 16 9.09090909090909  C 16 9.39393939393939  15.8939393939394 9.65151515151515  15.6818181818182 9.86363636363636  C 15.469696969697 10.0757575757576  15.2121212121212 10.1818181818182  14.9090909090909 10.1818181818182  L 10.1818181818182 10.1818181818182  L 10.1818181818182 14.9090909090909  C 10.1818181818182 15.2121212121212  10.0757575757576 15.469696969697  9.86363636363636 15.6818181818182  C 9.65151515151515 15.8939393939394  9.39393939393939 16  9.09090909090909 16  L 6.90909090909091 16  C 6.60606060606061 16  6.34848484848485 15.8939393939394  6.13636363636364 15.6818181818182  C 5.92424242424242 15.469696969697  5.81818181818182 15.2121212121212  5.81818181818182 14.9090909090909  L 5.81818181818182 10.1818181818182  L 1.09090909090909 10.1818181818182  C 0.787878787878788 10.1818181818182  0.53030303030303 10.0757575757576  0.318181818181818 9.86363636363636  C 0.106060606060606 9.65151515151515  0 9.39393939393939  0 9.09090909090909  L 0 6.90909090909091  C 0 6.60606060606061  0.106060606060606 6.34848484848485  0.318181818181818 6.13636363636364  C 0.53030303030303 5.92424242424242  0.787878787878788 5.81818181818182  1.09090909090909 5.81818181818182  L 5.81818181818182 5.81818181818182  L 5.81818181818182 1.09090909090909  C 5.81818181818182 0.787878787878787  5.92424242424242 0.530303030303029  6.13636363636364 0.318181818181818  C 6.34848484848485 0.106060606060606  6.60606060606061 0  6.90909090909091 0  L 9.09090909090909 0  C 9.39393939393939 0  9.65151515151515 0.106060606060606  9.86363636363636 0.318181818181818  C 10.0757575757576 0.530303030303029  10.1818181818182 0.787878787878787  10.1818181818182 1.09090909090909  L 10.1818181818182 5.81818181818182  L 14.9090909090909 5.81818181818182  C 15.2121212121212 5.81818181818182  15.469696969697 5.92424242424242  15.6818181818182 6.13636363636364  Z " fill-rule="nonzero" fill="#9e9ac5" stroke="none" fill-opacity="0.996078431372549" transform="matrix(1 0 0 1 267 504 )" />
  </g>
</svg>