<?xml version="1.0" encoding="utf-8"?>
<svg version="1.1" xmlns:xlink="http://www.w3.org/1999/xlink" width="16px" height="16px" xmlns="http://www.w3.org/2000/svg">
  <g transform="matrix(1 0 0 1 -143 -621 )">
    <path d="M 13.1875 6.78125  C 13.3125 6.65625  13.375 6.5  13.375 6.3125  C 13.375 6.11805555555556  13.3125 5.95833333333333  13.1875 5.83333333333333  L 12.2395833333333 4.89583333333333  C 12.1076388888889 4.76388888888889  11.9513888888889 4.69791666666667  11.7708333333333 4.69791666666667  C 11.5902777777778 4.69791666666667  11.4340277777778 4.76388888888889  11.3020833333333 4.89583333333333  L 7.05208333333333 9.13541666666667  L 4.69791666666667 6.78125  C 4.56597222222222 6.64930555555556  4.40972222222222 6.58333333333333  4.22916666666667 6.58333333333333  C 4.04861111111111 6.58333333333333  3.89236111111111 6.64930555555556  3.76041666666667 6.78125  L 2.8125 7.71875  C 2.6875 7.84375  2.625 8.00347222222222  2.625 8.19791666666667  C 2.625 8.38541666666667  2.6875 8.54166666666667  2.8125 8.66666666666667  L 6.58333333333333 12.4375  C 6.71527777777778 12.5694444444444  6.87152777777778 12.6354166666667  7.05208333333333 12.6354166666667  C 7.23958333333333 12.6354166666667  7.39930555555556 12.5694444444444  7.53125 12.4375  L 13.1875 6.78125  Z M 14.9270833333333 3.984375  C 15.6423611111111 5.21006944444444  16 6.54861111111111  16 8  C 16 9.45138888888889  15.6423611111111 10.7899305555556  14.9270833333333 12.015625  C 14.2118055555556 13.2413194444444  13.2413194444444 14.2118055555556  12.015625 14.9270833333333  C 10.7899305555556 15.6423611111111  9.45138888888889 16  8 16  C 6.54861111111111 16  5.21006944444444 15.6423611111111  3.984375 14.9270833333333  C 2.75868055555556 14.2118055555556  1.78819444444444 13.2413194444444  1.07291666666667 12.015625  C 0.357638888888889 10.7899305555556  0 9.45138888888889  0 8  C 0 6.54861111111111  0.357638888888889 5.21006944444444  1.07291666666667 3.984375  C 1.78819444444444 2.75868055555556  2.75868055555556 1.78819444444444  3.984375 1.07291666666667  C 5.21006944444444 0.357638888888888  6.54861111111111 0  8 0  C 9.45138888888889 0  10.7899305555556 0.357638888888888  12.015625 1.07291666666667  C 13.2413194444444 1.78819444444444  14.2118055555556 2.75868055555556  14.9270833333333 3.984375  Z " fill-rule="nonzero" fill="#348e25" stroke="none" transform="matrix(1 0 0 1 143 621 )" />
  </g>
</svg>