<?xml version="1.0" encoding="utf-8"?>
<svg version="1.1" xmlns:xlink="http://www.w3.org/1999/xlink" width="16px" height="4px" xmlns="http://www.w3.org/2000/svg">
  <g transform="matrix(1 0 0 1 -157 -510 )">
    <path d="M 15.6818181818182 0.291666666666667  C 15.8939393939394 0.486111111111109  16 0.722222222222221  16 1  L 16 3  C 16 3.27777777777778  15.8939393939394 3.51388888888889  15.6818181818182 3.70833333333333  C 15.469696969697 3.90277777777778  15.2121212121212 4  14.9090909090909 4  L 1.09090909090909 4  C 0.787878787878788 4  0.53030303030303 3.90277777777778  0.318181818181818 3.70833333333333  C 0.106060606060606 3.51388888888889  0 3.27777777777778  0 3  L 0 1  C 0 0.722222222222221  0.106060606060606 0.486111111111109  0.318181818181818 0.291666666666667  C 0.53030303030303 0.0972222222222214  0.787878787878788 0  1.09090909090909 0  L 14.9090909090909 0  C 15.2121212121212 0  15.469696969697 0.0972222222222214  15.6818181818182 0.291666666666667  Z " fill-rule="nonzero" fill="#9e9ac5" stroke="none" fill-opacity="0.996078431372549" transform="matrix(1 0 0 1 157 510 )" />
  </g>
</svg>